# xmcd
#
# Track frame offsets:
#	150
#	16930
#	35732
#	51129
#	69275
#	90283
#	110697
#	132753
#	153608
#	175324
#
# Disc length: 2556 seconds
# Revision: 0
# Processed by: cddbd v1.5.2PL0 Copyright (c) Steve Scherf et al.
# Submitted via: dBpowerAMP V12.0
#
DISCID=7c09fa0a
DTITLE=Dayan Kai - To Be Free
DYEAR=2019
DGENRE=Country
TTITLE0=To Be Free
TTITLE1=Giving My Time Away
TTITLE2=Spent My Time Dreaming
TTITLE3=Social Creatures
TTITLE4=Time And Love
TTITLE5=Bank Robber Blues
TTITLE6=Answers
TTITLE7=So Many Broken
TTITLE8=The Same
TTITLE9=Head North
EXTD=
EXTT0=
EXTT1=
EXTT2=
EXTT3=
EXTT4=
EXTT5=
EXTT6=
EXTT7=
EXTT8=
EXTT9=
PLAYORDER=
